<?xml version="1.0" encoding="UTF-8"?>
<svg id="Layer_1" data-name="Layer 1" xmlns="http://www.w3.org/2000/svg" xmlns:xlink="http://www.w3.org/1999/xlink" viewBox="0 0 660 190">
  <defs>
    <style>
      .cls-1, .cls-2 {
        fill: none;
      }

      .cls-2 {
        stroke: #005138;
        stroke-miterlimit: 10;
        stroke-width: 2px;
      }

      .cls-3 {
        fill: #ef7700;
      }

      .cls-4 {
        fill: #005138;
      }

      .cls-5 {
        clip-path: url(#clippath);
      }
    </style>
    <clipPath id="clippath">
      <path class="cls-1" d="M83.84,46.8v96.4l79.43-48.2-79.43-48.2ZM111.46,95c0-14.2,9.44-25.71,9.44-25.71,0,0,9.44,11.51,9.44,25.71s-9.44,25.71-9.44,25.71c0,0-9.44-11.51-9.44-25.71Z"/>
    </clipPath>
  </defs>
  <g>
    <g>
      <path class="cls-4" d="M215.17,96.34h-27.32l-5.39,10.69h-10.46l24.59-46.2h9.99l24.67,46.2h-10.62l-5.46-10.69ZM211.81,89.61l-10.3-20.19-10.23,20.19h20.53Z"/>
      <path class="cls-4" d="M272.07,83.41h9.6v18.41c-5.7,3.89-13.66,5.87-21.39,5.87-16.94,0-29.43-9.96-29.43-23.76s12.49-23.76,29.59-23.76c9.13,0,16.78,2.57,21.94,7.52l-6.4,5.28c-4.29-3.63-9.21-5.28-15.07-5.28-11.63,0-19.83,6.67-19.83,16.23s8.2,16.23,19.75,16.23c3.9,0,7.73-.66,11.24-2.38v-14.39Z"/>
      <path class="cls-4" d="M329.59,107.03l-11.16-13.53c-.7.07-1.41.07-2.11.07h-12.33v13.46h-10.15v-46.2h22.48c14.36,0,23.26,6.2,23.26,16.43,0,7-4.21,12.14-11.63,14.58l12.57,15.18h-10.93ZM315.85,68.1h-11.87v18.41h11.87c8.9,0,13.5-3.43,13.5-9.24s-4.61-9.17-13.5-9.17Z"/>
      <path class="cls-4" d="M345.89,83.94c0-13.66,12.49-23.76,29.43-23.76s29.43,10.03,29.43,23.76-12.49,23.76-29.43,23.76-29.43-10.1-29.43-23.76ZM394.52,83.94c0-9.44-8.2-16.23-19.2-16.23s-19.2,6.8-19.2,16.23,8.2,16.23,19.2,16.23,19.2-6.8,19.2-16.23Z"/>
      <path class="cls-3" d="M463.16,60.84v46.2h-8.35l-30.13-31.28v31.28h-10.07v-46.2h8.35l30.13,31.28v-31.28h10.07Z"/>
      <path class="cls-3" d="M517.65,99.84v7.19h-40.98v-46.2h39.89v7.19h-29.74v12.01h26.38v7.06h-26.38v12.74h30.83Z"/>
      <path class="cls-3" d="M563.82,107.03l-14.83-17.55-14.68,17.55h-11.55l20.3-23.56-19.2-22.64h11.47l13.97,16.43,13.82-16.43h11.01l-19.12,22.31,20.53,23.89h-11.71Z"/>
    </g>
    <line class="cls-2" x1="172" y1="129.58" x2="272" y2="129.58"/>
    <g>
      <path class="cls-4" d="M303.39,131.99h-5.52l-1.05,2.55h-2.82l5.3-11.9h2.72l5.32,11.9h-2.89l-1.05-2.55ZM302.52,129.9l-1.89-4.56-1.89,4.56h3.77Z"/>
      <path class="cls-4" d="M321.93,128.41h2.52v4.83c-1.31.99-3.11,1.51-4.81,1.51-3.74,0-6.49-2.57-6.49-6.15s2.75-6.15,6.54-6.15c2.09,0,3.82.71,4.98,2.06l-1.77,1.63c-.87-.92-1.87-1.34-3.08-1.34-2.31,0-3.89,1.55-3.89,3.81s1.58,3.81,3.86,3.81c.75,0,1.45-.14,2.14-.51v-3.49Z"/>
      <path class="cls-4" d="M334.96,124.89h-3.81v-2.24h10.37v2.24h-3.81v9.66h-2.75v-9.66Z"/>
      <path class="cls-4" d="M357.7,132.33v2.21h-9.21v-11.9h8.99v2.21h-6.26v2.58h5.52v2.14h-5.52v2.75h6.48Z"/>
      <path class="cls-4" d="M364.6,128.59c0-3.59,2.75-6.15,6.46-6.15,2.06,0,3.77.75,4.9,2.11l-1.77,1.63c-.8-.92-1.8-1.39-2.99-1.39-2.23,0-3.81,1.56-3.81,3.81s1.58,3.81,3.81,3.81c1.19,0,2.19-.48,2.99-1.41l1.77,1.63c-1.12,1.38-2.84,2.12-4.91,2.12-3.69,0-6.44-2.57-6.44-6.15Z"/>
      <path class="cls-4" d="M394.22,122.64v11.9h-2.75v-4.88h-5.41v4.88h-2.75v-11.9h2.75v4.69h5.41v-4.69h2.75Z"/>
      <path class="cls-4" d="M412.83,122.64h2.75v11.9h-2.75v-11.9Z"/>
      <path class="cls-4" d="M434.81,122.64v11.9h-2.26l-5.93-7.22v7.22h-2.72v-11.9h2.28l5.92,7.22v-7.22h2.72Z"/>
      <path class="cls-4" d="M442.38,128.59c0-3.59,2.75-6.15,6.46-6.15,2.06,0,3.77.75,4.9,2.11l-1.77,1.63c-.8-.92-1.8-1.39-2.99-1.39-2.23,0-3.81,1.56-3.81,3.81s1.58,3.81,3.81,3.81c1.19,0,2.19-.48,2.99-1.41l1.77,1.63c-1.12,1.38-2.84,2.12-4.91,2.12-3.69,0-6.44-2.57-6.44-6.15Z"/>
    </g>
    <line class="cls-2" x1="476.16" y1="129.58" x2="576.16" y2="129.58"/>
  </g>
  <g class="cls-5">
    <rect class="cls-3" x="120.9" y="37.4" width="44.62" height="118.76"/>
    <rect class="cls-4" x="76.28" y="37.4" width="44.62" height="118.76"/>
  </g>
</svg>